<svg id="图层_1" data-name="图层 1" xmlns="http://www.w3.org/2000/svg" xmlns:xlink="http://www.w3.org/1999/xlink" viewBox="0 0 500.18 476.94"><defs><style>.cls-1{fill:#e3dde8;}.cls-10,.cls-2,.cls-3,.cls-6,.cls-7,.cls-8,.cls-9{stroke-miterlimit:10;}.cls-10,.cls-2,.cls-3,.cls-6,.cls-8,.cls-9{stroke-width:2px;}.cls-2{fill:url(#未命名的渐变_5);stroke:url(#未命名的渐变_5-2);}.cls-3{fill:url(#未命名的渐变_5-3);stroke:url(#未命名的渐变_5-4);}.cls-4{fill:url(#未命名的渐变_38);}.cls-5{fill:#fff;}.cls-6{fill:url(#未命名的渐变_5-5);stroke:url(#未命名的渐变_5-5);}.cls-7{stroke:#e3dde8;stroke-width:16px;fill:url(#未命名的渐变_5-7);}.cls-8{fill:url(#未命名的渐变_5-8);stroke:url(#未命名的渐变_5-9);}.cls-9{fill:url(#未命名的渐变_5-10);stroke:url(#未命名的渐变_5-11);}.cls-10{fill:url(#未命名的渐变_21);stroke:url(#未命名的渐变_5-12);}</style><linearGradient id="未命名的渐变_5" x1="117.64" y1="94.73" x2="179.26" y2="94.73" gradientUnits="userSpaceOnUse"><stop offset="0" stop-color="#bd2fff"/><stop offset="1" stop-color="#5300a4"/></linearGradient><linearGradient id="未命名的渐变_5-2" x1="114.75" y1="94.73" x2="180.26" y2="94.73" xlink:href="#未命名的渐变_5"/><linearGradient id="未命名的渐变_5-3" x1="87.58" y1="260.91" x2="372.36" y2="260.91" xlink:href="#未命名的渐变_5"/><linearGradient id="未命名的渐变_5-4" x1="86.58" y1="260.91" x2="373.11" y2="260.91" xlink:href="#未命名的渐变_5"/><linearGradient id="未命名的渐变_38" x1="265.19" y1="321.88" x2="110.69" y2="335.39" gradientUnits="userSpaceOnUse"><stop offset="0" stop-color="#bd2fff"/><stop offset="0.54" stop-color="#5300a4" stop-opacity="0.9"/><stop offset="1" stop-color="#af29f3"/></linearGradient><linearGradient id="未命名的渐变_5-5" x1="414.11" y1="329.91" x2="414.11" y2="329.91" xlink:href="#未命名的渐变_5"/><linearGradient id="未命名的渐变_5-7" x1="-277.48" y1="1627.51" x2="50.67" y2="1627.51" gradientTransform="matrix(0.67, 0.14, -0.18, 2.02, 577.48, -2830.06)" xlink:href="#未命名的渐变_5"/><linearGradient id="未命名的渐变_5-8" x1="967.78" y1="399.53" x2="1225.59" y2="399.53" gradientTransform="translate(-815.49 250.44) rotate(-14.63)" xlink:href="#未命名的渐变_5"/><linearGradient id="未命名的渐变_5-9" x1="188.37" y1="367.26" x2="506.4" y2="367.26" xlink:href="#未命名的渐变_5"/><linearGradient id="未命名的渐变_5-10" x1="1147.36" y1="364.29" x2="1423.45" y2="364.29" gradientTransform="translate(-999.15 341.94) rotate(-18.08)" xlink:href="#未命名的渐变_5"/><linearGradient id="未命名的渐变_5-11" x1="168.18" y1="300.5" x2="493.61" y2="300.5" xlink:href="#未命名的渐变_5"/><linearGradient id="未命名的渐变_21" x1="230.86" y1="298.66" x2="377.48" y2="152.04" gradientUnits="userSpaceOnUse"><stop offset="0" stop-color="#bd2fff"/><stop offset="0.56" stop-color="#5300a4"/><stop offset="1" stop-color="#a524eb"/></linearGradient><linearGradient id="未命名的渐变_5-12" x1="157.12" y1="229.83" x2="447.82" y2="229.83" xlink:href="#未命名的渐变_5"/></defs><title>512</title><circle class="cls-1" cx="216.52" cy="216.52" r="216.52"/><path class="cls-2" d="M117.64,63.87s50.66,19.3,10.86,60.32c-14.34,14.77,43.75-9.53,49.45-9.65S171.92,44.57,117.64,63.87Z" transform="translate(-6.22 -17.27)"/><path class="cls-3" d="M213,194.68c-30.12,4.15-51.9,24.81-54.32,33.25s.45,15.34,12.07,26.54,35,25.33,57.37,55.86c1.3,1.77-14.16,24.38-20,70.8-2.31,18.45,12.76,33.69,16.89-1.2,4.82-40.74,14.05-54,15.68-51.87,15.38,20.18,21,31.47,32.63,76.29,1.38,5.33-34.55-11.18-70.82-6.23-41.68,5.69-84.56,32-84.25,23.43,2.41-66.35,36.85-134.12,38.6-141.14,2.42-9.65,1.21-20.51-2.41-26.54-3.51-5.85-18.07-20.71-30.16-21.72-14.47-1.2-24.12,8.45-27.74,14.48-2.41,6-4.22-3-4.22-3S77.83,194.16,99.54,158s62.66-64.88,120-58.51c36.6,4.07,94.35,58.06,152.79,125" transform="translate(-6.22 -17.27)"/><path class="cls-4" d="M170.72,254.47c11.57,11.17,35,25.33,57.37,55.86,1.3,1.77-14.16,24.38-20,70.8a39.36,39.36,0,0,0,1.36,15.72c.87,3,15.12,1.19,14.95-2.24a86.15,86.15,0,0,1,.58-14.68c4.82-40.74,14.05-54,15.68-51.87,12.88,16.9,21.62,35.76,31,67.77,1.82,6.21-154,41.74-153.41,25.72,2.41-66.35,36.85-134.12,38.6-141.14,13.88-17.49,2-41.76,2-41.76Z" transform="translate(-6.22 -17.27)"/><circle class="cls-5" cx="124.69" cy="158.8" r="14.48"/><path class="cls-6" d="M414.11,329.91" transform="translate(-6.22 -17.27)"/><path class="cls-7" d="M108,482s-12.15,13.65-14.15-8.47c-1.72-19,4.77-28.91,11.14-37.4,16.37-21.79,108.39-114.38,217.43-16.25C222.74,391.11,186.13,394.22,108,482Z" transform="translate(-6.22 -17.27)"/><path class="cls-8" d="M433.17,403.74s-49.28,11.59-82.23-23.07S248.66,251.9,188.59,265.23c0,0,51.59-1.73,92.61,63.83s68.52,124.7,102.19,135.19a143.07,143.07,0,0,0,80.27,1.13c16.5-4.68,39.34-16.45,39.34-16.45S466,444.82,433.17,403.74Z" transform="translate(-6.22 -17.27)"/><path class="cls-9" d="M412.29,295.52s-33.7,20.4-70.87,5c-35.28-14.63-115.15-85.82-167.38-62,0,0,43.36-4.19,81.08,23.67,47,34.7,77,72.17,97.4,86.27s43.86,24.25,71.47,16c32.08-9.61,63.79-31.31,68-41.53C492,322.85,453.46,327.09,412.29,295.52Z" transform="translate(-6.22 -17.27)"/><path class="cls-10" d="M159.1,226.89s16.35-45.31,72.48-47.58,94.15,21.58,111.24,28c14.76,5.53,69.08,25.38,87.72,19.69s16.17-5.64,16.17-5.64-14.47,38.87-43.15,48.88-42.39,15.63-69.91,3S212.53,190.91,159.1,226.89Z" transform="translate(-6.22 -17.27)"/></svg>