<svg id="图层_1" data-name="图层 1" xmlns="http://www.w3.org/2000/svg" xmlns:xlink="http://www.w3.org/1999/xlink" viewBox="0 0 62.21 63.47"><defs><style>.cls-1{fill:#e3dde8;}.cls-2,.cls-6,.cls-7,.cls-8,.cls-9{stroke-miterlimit:10;}.cls-2,.cls-6{stroke-width:2px;}.cls-2{fill:url(#未命名的渐变_5);stroke:url(#未命名的渐变_5-2);}.cls-3{fill:url(#未命名的渐变_5-3);}.cls-4{fill:url(#未命名的渐变_38);}.cls-5{fill:#fff;}.cls-6{stroke:#fff;fill:url(#未命名的渐变_5-4);}.cls-7{fill:url(#未命名的渐变_5-5);stroke:url(#未命名的渐变_5-6);}.cls-8{fill:url(#未命名的渐变_5-7);stroke:url(#未命名的渐变_5-8);}.cls-9{fill:url(#未命名的渐变_21);stroke:url(#未命名的渐变_5-9);}</style><linearGradient id="未命名的渐变_5" x1="20.36" y1="15.82" x2="28.57" y2="15.82" gradientUnits="userSpaceOnUse"><stop offset="0" stop-color="#bd2fff"/><stop offset="1" stop-color="#5300a4"/></linearGradient><linearGradient id="未命名的渐变_5-2" x1="17.47" y1="15.82" x2="29.57" y2="15.82" xlink:href="#未命名的渐变_5"/><linearGradient id="未命名的渐变_5-3" x1="16.36" y1="37.96" x2="54.3" y2="37.96" xlink:href="#未命名的渐变_5"/><linearGradient id="未命名的渐变_38" x1="40.02" y1="46.08" x2="19.44" y2="47.88" gradientUnits="userSpaceOnUse"><stop offset="0" stop-color="#bd2fff"/><stop offset="0.54" stop-color="#5300a4" stop-opacity="0.9"/><stop offset="1" stop-color="#af29f3"/></linearGradient><linearGradient id="未命名的渐变_5-4" x1="-311.32" y1="1326.49" x2="-267.61" y2="1326.49" gradientTransform="matrix(0.67, 0.14, -0.18, 2.02, 465.97, -2576.3)" xlink:href="#未命名的渐变_5"/><linearGradient id="未命名的渐变_5-5" x1="585.74" y1="-5.41" x2="612.29" y2="-5.41" gradientTransform="translate(-534.1 182.68) rotate(-12.17)" xlink:href="#未命名的渐变_5"/><linearGradient id="未命名的渐变_5-6" x1="-205.21" y1="31.93" x2="-171.02" y2="31.93" gradientTransform="translate(240.31 28.03) rotate(2.46)" xlink:href="#未命名的渐变_5"/><linearGradient id="未命名的渐变_5-7" x1="775.19" y1="4.45" x2="803.62" y2="4.45" gradientTransform="translate(-711.83 250.17) rotate(-15.62)" xlink:href="#未命名的渐变_5"/><linearGradient id="未命名的渐变_5-8" x1="-209.53" y1="23.14" x2="-173.06" y2="23.14" gradientTransform="translate(240.31 28.03) rotate(2.46)" xlink:href="#未命名的渐变_5"/><linearGradient id="未命名的渐变_21" x1="36.48" y1="37.78" x2="51.57" y2="22.68" gradientUnits="userSpaceOnUse"><stop offset="0" stop-color="#bd2fff"/><stop offset="0.56" stop-color="#5300a4"/><stop offset="1" stop-color="#a524eb"/></linearGradient><linearGradient id="未命名的渐变_5-9" x1="28.09" y1="30.69" x2="59.21" y2="30.69" xlink:href="#未命名的渐变_5"/></defs><title>73</title><circle class="cls-1" cx="28.84" cy="28.84" r="28.84"/><path class="cls-2" d="M20.36,11.71s6.75,2.57,1.45,8c-1.91,2,5.83-1.26,6.59-1.28S27.59,9.14,20.36,11.71Z" transform="translate(-5.52 -5.5)"/><path class="cls-3" d="M33.06,29.14c-4,.55-6.91,3.3-7.23,4.43s.06,2,1.6,3.53,4.66,3.38,7.65,7.44c.17.24-1.89,3.25-2.67,9.44-.3,2.45,1.7,4.48,2.25-.17.65-5.42,1.88-7.19,2.09-6.91,2,2.69,2.8,4.2,4.35,10.17.18.71-4.6-1.49-9.43-.83C26.11,57,20.4,60.5,20.44,59.36c.32-8.84,4.91-17.87,5.14-18.8A5,5,0,0,0,25.26,37c-.46-.78-2.4-2.76-4-2.89a4,4,0,0,0-3.7,1.93c-.32.8-.56-.41-.56-.41s-1.93-6.58,1-11.41a16,16,0,0,1,16-7.79C38.82,17,46.51,24.18,54.3,33.1" transform="translate(-5.52 -5.5)"/><path class="cls-4" d="M27.43,37.1c1.54,1.49,4.66,3.38,7.65,7.44.17.24-1.89,3.25-2.67,9.44a5.09,5.09,0,0,0,.19,2.09c.11.41,2,.16,2-.3a12.27,12.27,0,0,1,.07-2c.65-5.42,1.88-7.19,2.09-6.91,1.72,2.26,2.88,4.77,4.13,9,.24.83-20.52,5.56-20.44,3.43.32-8.84,4.91-17.87,5.14-18.8,1.85-2.33.27-5.57.27-5.57Z" transform="translate(-5.52 -5.5)"/><circle class="cls-5" cx="16.61" cy="21.16" r="1.93"/><path class="cls-6" d="M19.08,67.42s-1.62,1.82-1.89-1.13a6.41,6.41,0,0,1,1.49-5c2.18-2.91,14.44-15.24,29-2.17C34.36,55.3,29.49,55.72,19.08,67.42Z" transform="translate(-5.52 -5.5)"/><path class="cls-7" d="M59,56s-5.12,1-8.36-2.73-10-13.7-16.19-12.6c0,0,5.31,0,9.24,7S50.22,60.74,53.64,62a14.72,14.72,0,0,0,8.26.47A28.31,28.31,0,0,0,66,60.92S62.23,60.34,59,56Z" transform="translate(-5.52 -5.5)"/><path class="cls-8" d="M57.44,42.83a8.71,8.71,0,0,1-7.31.19c-3.56-1.66-11.47-9.33-17-7.12a13.24,13.24,0,0,1,8.24,2.8C46.1,42.47,49,46.46,51.06,48s4.41,2.69,7.28,2c3.35-.85,6.7-2.94,7.19-4A12.4,12.4,0,0,1,57.44,42.83Z" transform="translate(-5.52 -5.5)"/><path class="cls-9" d="M29.08,30.39a8.16,8.16,0,0,1,7.47-4.9c5.78-.23,9.69,2.22,11.45,2.88,1.52.57,7.12,2.62,9,2s1.66-.58,1.66-.58-1.49,4-4.44,5-4.37,1.61-7.2.31S34.59,26.68,29.08,30.39Z" transform="translate(-5.52 -5.5)"/></svg>